<svg width="140" height="106" viewBox="0 0 140 106" fill="none" xmlns="http://www.w3.org/2000/svg">
<path d="M42.728 62.624C41.9067 65.4613 40.7307 67.5893 39.2 69.008C37.3707 70.688 34.8507 71.528 31.64 71.528C29.9227 71.528 28.2427 71.2667 26.6 70.744C24.9573 70.2213 22.8853 69.4 20.384 68.28C17.6213 67.0853 15.3627 66.1893 13.608 65.592L12.264 65.2C10.6587 65.76 9.10933 66.04 7.616 66.04C5.89867 66.04 5.04 65.6667 5.04 64.92C5.04 64.136 6.048 63.744 8.064 63.744C9.37067 63.744 10.7707 63.8933 12.264 64.192C13.4587 63.856 14.84 63.3333 16.408 62.624C17.3787 62.176 18.1067 61.8587 18.592 61.672C15.4187 61.3733 12.656 60.384 10.304 58.704C7.98933 57.024 6.17867 54.728 4.872 51.816C3.60267 48.8667 2.968 45.432 2.968 41.512C2.968 37.4053 3.71467 33.7653 5.208 30.592C6.73867 27.4187 8.848 24.9547 11.536 23.2C14.2613 21.4453 17.3413 20.568 20.776 20.568C24.3227 20.568 27.4213 21.3707 30.072 22.976C32.76 24.5813 34.832 26.9147 36.288 29.976C37.7813 33 38.528 36.6213 38.528 40.84C38.528 44.7227 37.856 48.1947 36.512 51.256C35.168 54.28 33.2827 56.7067 30.856 58.536C28.4293 60.328 25.648 61.3733 22.512 61.672V61.728C21.616 61.84 20.832 61.9893 20.16 62.176C19.5253 62.4 18.6667 62.736 17.584 63.184C16.24 63.7813 15.12 64.2107 14.224 64.472C18.368 65.2933 21.8773 65.9467 24.752 66.432C27.664 66.9173 30.072 67.16 31.976 67.16C34.6267 67.16 36.7173 66.768 38.248 65.984C39.816 65.2373 41.0293 64.0053 41.888 62.288L42.728 62.624ZM8.568 41.288C8.568 45.1707 9.10933 48.5867 10.192 51.536C11.312 54.4853 12.8053 56.7627 14.672 58.368C16.5387 59.9733 18.6293 60.776 20.944 60.776C23.3333 60.776 25.424 59.9547 27.216 58.312C29.0453 56.632 30.4453 54.2987 31.416 51.312C32.424 48.3253 32.928 44.9093 32.928 41.064C32.928 37.1813 32.368 33.7653 31.248 30.816C30.1653 27.8667 28.6907 25.5893 26.824 23.984C24.9573 22.3787 22.8667 21.576 20.552 21.576C18.1627 21.576 16.0533 22.416 14.224 24.096C12.432 25.7387 11.032 28.0533 10.024 31.04C9.05333 34.0267 8.568 37.4427 8.568 41.288ZM48.1158 20.568C49.5718 20.568 50.6731 21.1653 51.4198 22.36C52.0545 23.368 52.3718 24.6 52.3718 26.056C52.3718 27.9227 51.8865 29.6027 50.9158 31.096C49.9825 32.5893 48.5451 33.784 46.6038 34.68L46.0998 33.672C47.2571 33.1867 48.2465 32.4213 49.0678 31.376C49.9265 30.3307 50.3558 29.2667 50.3558 28.184C50.3558 27.736 50.2998 27.344 50.1878 27.008C49.5905 27.4933 48.8998 27.736 48.1158 27.736C47.1078 27.736 46.2491 27.4187 45.5398 26.784C44.8678 26.112 44.5318 25.2347 44.5318 24.152C44.5318 23.144 44.8678 22.304 45.5398 21.632C46.2491 20.9227 47.1078 20.568 48.1158 20.568ZM66.1714 31.376C67.5154 31.376 68.7101 31.5813 69.7554 31.992C70.8008 32.4027 71.6408 32.888 72.2754 33.448C72.6861 33.7467 73.0221 33.896 73.2834 33.896C73.9554 33.896 74.3661 33.0747 74.5154 31.432H75.8034C75.6541 33.2613 75.5794 36.4347 75.5794 40.952H74.2914C73.8808 38.488 73.0781 36.4533 71.8834 34.848C70.7261 33.2427 68.9901 32.44 66.6754 32.44C65.3314 32.44 64.2301 32.832 63.3714 33.616C62.5128 34.3627 62.0834 35.408 62.0834 36.752C62.0834 38.0587 62.5314 39.16 63.4274 40.056C64.3234 40.9147 65.7608 41.96 67.7394 43.192C68.0754 43.3787 68.5794 43.696 69.2514 44.144C70.9688 45.264 72.3501 46.2533 73.3954 47.112C74.4408 47.9707 75.2808 48.96 75.9154 50.08C76.5874 51.2 76.9234 52.488 76.9234 53.944C76.9234 56.408 75.9901 58.3307 74.1234 59.712C72.2941 61.0933 70.0354 61.784 67.3474 61.784C65.6674 61.784 64.1928 61.5227 62.9234 61C62.1021 60.5893 61.3368 60.0853 60.6274 59.488C60.4781 59.3387 60.3101 59.264 60.1234 59.264C59.8621 59.264 59.6194 59.4507 59.3954 59.824C59.2088 60.1973 59.0594 60.72 58.9474 61.392H57.6594C57.8088 59.264 57.8834 55.5307 57.8834 50.192H59.1714C59.5821 53.7013 60.3288 56.3333 61.4114 58.088C62.4941 59.8053 64.3421 60.664 66.9554 60.664C68.2621 60.664 69.4194 60.2347 70.4274 59.376C71.4354 58.5173 71.9394 57.1733 71.9394 55.344C71.9394 53.888 71.4354 52.656 70.4274 51.648C69.4568 50.64 67.8514 49.4267 65.6114 48.008C63.7821 46.8507 62.3634 45.8987 61.3554 45.152C60.3848 44.4053 59.5634 43.4907 58.8914 42.408C58.2194 41.3253 57.8834 40.056 57.8834 38.6C57.8834 36.248 58.6674 34.456 60.2354 33.224C61.8034 31.992 63.7821 31.376 66.1714 31.376Z" fill="#BF7656"/>
<path d="M46.776 63.568C49.016 63.568 50.92 63.8853 52.488 64.52C54.056 65.1547 55.5867 66.0507 57.08 67.208C57.4907 67.544 57.8453 67.712 58.144 67.712C58.8907 67.712 59.376 66.592 59.6 64.352H60.888C60.7387 66.7787 60.664 71.072 60.664 77.232H59.376C58.9653 74.8053 58.592 73.0693 58.256 72.024C57.92 70.9413 57.36 69.9147 56.576 68.944C55.456 67.488 54.0187 66.4053 52.264 65.696C50.5467 64.9493 48.68 64.576 46.664 64.576C44.2373 64.576 42.1093 65.3787 40.28 66.984C38.488 68.5893 37.088 70.8853 36.08 73.872C35.072 76.8213 34.568 80.2933 34.568 84.288C34.568 88.3573 35.1093 91.848 36.192 94.76C37.2747 97.672 38.768 99.8933 40.672 101.424C42.6133 102.917 44.7973 103.664 47.224 103.664C49.0907 103.664 50.9013 103.309 52.656 102.6C54.4107 101.891 55.792 100.827 56.8 99.408C57.5467 98.3627 58.088 97.2427 58.424 96.048C58.76 94.8533 59.0773 93.024 59.376 90.56H60.664C60.664 96.9813 60.7387 101.461 60.888 104H59.6C59.488 102.805 59.32 101.965 59.096 101.48C58.9093 100.957 58.6293 100.696 58.256 100.696C57.9573 100.696 57.5653 100.845 57.08 101.144C55.4 102.339 53.7947 103.253 52.264 103.888C50.7333 104.485 48.8853 104.784 46.72 104.784C43.1733 104.784 40.056 103.981 37.368 102.376C34.7173 100.771 32.6453 98.456 31.152 95.432C29.696 92.3707 28.968 88.7307 28.968 84.512C28.968 80.4053 29.7147 76.7653 31.208 73.592C32.7387 70.4187 34.848 67.9547 37.536 66.2C40.2613 64.4453 43.3413 63.568 46.776 63.568Z" fill="#F0C3A4"/>
</svg>
